<?xml version="1.0" encoding="utf-8"?>
<!-- Generator: Adobe Illustrator 19.2.1, SVG Export Plug-In . SVG Version: 6.00 Build 0)  -->
<!DOCTYPE svg PUBLIC "-//W3C//DTD SVG 1.1//EN" "http://www.w3.org/Graphics/SVG/1.1/DTD/svg11.dtd">
<svg version="1.1" id="Layer_1" xmlns="http://www.w3.org/2000/svg" xmlns:xlink="http://www.w3.org/1999/xlink" x="0px" y="0px"
	 viewBox="0 0 10.2 9.5" style="enable-background:new 0 0 10.2 9.5;" xml:space="preserve">
<style type="text/css">
	.st0{fill:#D2C894;}
</style>
<g>
	<path class="st0" d="M2.2,5.3c0.1,0.1,0.2,0.2,0.3,0.4c0.4-0.4,0.7-0.7,1.1-1.1c0,0-0.1,0-0.1-0.1C2.6,3.5,1.7,2.6,0.7,1.7
		c0,0-0.1-0.1-0.1-0.1c0-0.5,0-0.9,0-1.4c0,0,0-0.1,0-0.1c0,0,0.1,0,0.1,0c0.4,0,0.9,0,1.3,0c0.1,0,0.1,0,0.1,0.1C3.1,1,4.1,2,5,3
		c0,0,0,0,0.1,0.1c0,0,0-0.1,0.1-0.1C6.1,2,7,1,8,0.1C8,0,8.1,0,8.1,0C8.6,0,9,0,9.5,0c0,0,0,0.1,0,0.1c0,0.5,0,0.9,0,1.4
		c0,0.1,0,0.1-0.1,0.1C8.5,2.6,7.5,3.5,6.6,4.5c0,0,0,0-0.1,0.1c0.4,0.4,0.7,0.7,1.1,1.1C7.7,5.5,7.8,5.4,8,5.3
		c0.4,0.3,0.5,0.9,0.1,1.4C8.6,7.1,9,7.6,9.5,8.1C9.6,8,9.7,8,9.9,8c0.3,0.1,0.4,0.4,0.2,0.6c0,0,0,0.1-0.1,0.1
		C9.8,8.9,9.6,9.1,9.3,9.4C9.2,9.5,9,9.5,8.9,9.5C8.7,9.4,8.6,9.2,8.7,9c0-0.1,0.1-0.2,0.1-0.2C8.3,8.4,7.8,7.9,7.3,7.4
		C6.8,7.8,6.3,7.6,6,7.3C6,7.2,6.1,7.2,6.2,7.1C5.8,6.7,5.4,6.4,5.1,6C4.7,6.4,4.4,6.7,4,7.1c0.1,0,0.1,0.1,0.2,0.2
		C3.9,7.7,3.3,7.8,2.8,7.4C2.4,7.9,1.9,8.4,1.4,8.8c0,0.1,0.1,0.2,0.1,0.3c0,0.2-0.1,0.3-0.2,0.4C1.1,9.5,1,9.5,0.9,9.4
		C0.6,9.2,0.4,8.9,0.1,8.7C0,8.5,0,8.3,0.1,8.1C0.2,8,0.4,7.9,0.6,8.1c0,0,0,0,0,0c0.5-0.5,1-1,1.4-1.4C1.7,6.2,1.8,5.6,2.2,5.3z
		 M9.2,0.3c-0.3,0-0.7,0-1,0c0,0-0.1,0-0.1,0C6.3,2.1,4.6,4,2.8,5.8c0,0,0,0-0.1,0.1c0.4,0.4,0.7,0.7,1,1c0,0,0,0,0,0
		c1.8-1.8,3.5-3.5,5.3-5.3c0,0,0-0.1,0-0.1C9.2,1.1,9.2,0.7,9.2,0.3C9.2,0.3,9.2,0.3,9.2,0.3z M0.9,0.3C0.9,0.3,0.9,0.3,0.9,0.3
		c0,0.4,0,0.8,0,1.1c0,0.1,0,0.1,0.1,0.1c0.9,0.9,1.8,1.8,2.8,2.7c0,0,0,0,0.1,0.1c0,0,0,0,0,0C4,4.2,4.1,4,4.3,3.9
		C3.4,2.9,2.5,2,1.6,1.1C1.7,1,1.7,1,1.8,0.9c0.9,0.9,1.8,1.8,2.7,2.8c0.2-0.1,0.3-0.3,0.4-0.4C4.7,3.1,4.6,2.9,4.4,2.8
		C3.7,1.9,2.9,1.1,2.1,0.3c0,0-0.1,0-0.1,0C1.7,0.3,1.3,0.3,0.9,0.3z M5.7,5.4C5.6,5.5,5.4,5.7,5.3,5.8C5.6,6.2,6,6.5,6.4,6.9
		c0.3-0.3,0.7-0.7,1-1c-0.3-0.4-0.7-0.7-1-1.1C6.2,4.9,6.1,5,5.9,5.2C6.2,5.5,6.5,5.8,6.8,6C6.7,6.1,6.7,6.2,6.6,6.3
		C6.3,6,6,5.7,5.7,5.4z M2.2,5.7C2.2,5.7,2.2,5.7,2.2,5.7C2.1,6,2.1,6.3,2.3,6.5C2.5,6.7,2.8,6.9,3,7.2c0.1,0.1,0.1,0.1,0.2,0.1
		c0.2,0.1,0.4,0.1,0.6,0C3.3,6.8,2.7,6.2,2.2,5.7z M6.4,7.3c0.3,0.1,0.6,0.1,0.8-0.1c0.2-0.2,0.5-0.5,0.7-0.7C7.9,6.4,8,6.4,8,6.3
		c0.1-0.2,0.1-0.4,0-0.6C7.4,6.2,6.9,6.7,6.4,7.3z M2.6,7.2C2.5,7.1,2.4,7,2.3,6.9c0,0,0,0.1-0.1,0.1C2.1,7,2,7.1,2.1,7.3
		c0,0.2,0,0.3,0,0.5C2.3,7.6,2.4,7.4,2.6,7.2z M0.4,8.2c-0.1,0-0.1,0.1-0.1,0.1c0,0,0,0.1,0.1,0.1C0.6,8.7,0.8,8.9,1,9.1
		c0,0,0,0,0.1,0c0.1,0,0.1,0,0.2,0c0,0,0-0.1,0-0.1C1,8.8,0.7,8.5,0.4,8.2C0.5,8.3,0.4,8.3,0.4,8.2z M9.1,9.2c0,0,0.1,0,0.1-0.1
		c0.2-0.2,0.5-0.5,0.7-0.7c0,0,0-0.1,0-0.1c0,0,0-0.1-0.1-0.1c-0.1,0-0.1,0-0.2,0C9.5,8.5,9.2,8.8,9,9C9,9,8.9,9.1,9.1,9.2
		C9,9.2,9,9.2,9.1,9.2z M8.1,7.7c0-0.2,0-0.4,0-0.6c0,0,0,0,0,0C8,7,8,6.9,7.9,6.9C7.8,7,7.7,7.1,7.6,7.2C7.7,7.4,7.9,7.5,8.1,7.7z
		 M1.8,7.4C1.8,7.4,1.8,7.4,1.8,7.4c-0.1,0-0.1,0.1-0.1,0.1C1.5,7.6,1.5,7.7,1.5,7.8c0,0.2,0,0.3,0,0.5C1.6,8.2,1.7,8.1,1.8,8
		c0,0,0,0,0,0C1.8,7.8,1.8,7.6,1.8,7.4z M8.6,8.3C8.6,8.3,8.6,8.3,8.6,8.3c0-0.2,0-0.4,0-0.6c0,0,0,0,0,0C8.5,7.5,8.5,7.4,8.4,7.3
		c0,0,0,0,0,0c0,0.2,0,0.4,0,0.6c0,0,0,0,0,0C8.5,8.1,8.5,8.2,8.6,8.3z M9.3,8.3C9.2,8.2,9,8,8.9,7.9c0,0.2,0,0.4,0,0.6
		c0,0.1,0,0.1,0,0.1C9.1,8.5,9.2,8.4,9.3,8.3z M1.3,8.5C1.2,8.6,1.2,8.5,1.3,8.5C1.2,8.3,1.2,8.1,1.2,7.9C1.1,8.1,1,8.2,0.9,8.3
		C1,8.4,1.1,8.5,1.3,8.5C1.2,8.6,1.3,8.6,1.3,8.5z"/>
	<path class="st0" d="M8.4,0.9C8.5,1,8.5,1,8.6,1.1c-1.7,1.7-3.3,3.4-5,5.2C3.5,6.2,3.4,6.1,3.4,6C5,4.3,6.7,2.6,8.4,0.9z"/>
</g>
</svg>
