<?xml version="1.0" encoding="utf-8"?>
<!-- Generator: Adobe Illustrator 19.2.1, SVG Export Plug-In . SVG Version: 6.00 Build 0)  -->
<!DOCTYPE svg PUBLIC "-//W3C//DTD SVG 1.1//EN" "http://www.w3.org/Graphics/SVG/1.1/DTD/svg11.dtd">
<svg version="1.1" id="Layer_1" xmlns="http://www.w3.org/2000/svg" xmlns:xlink="http://www.w3.org/1999/xlink" x="0px" y="0px"
	 viewBox="0 0 132.3 107" style="enable-background:new 0 0 132.3 107;" xml:space="preserve">
<style type="text/css">
	.st0{fill:#D2C894;}
</style>
<g>
	<path class="st0" d="M132.3,14.9L112.6,0.7L100,14.5l0.1,0.3c0.4,2.3,0.3,4.4-0.1,6.4c-1-1.4-2.1-2.7-3.3-3.9l7.2-8l0.1-0.2
		c0.1-0.3,0.1-0.7-0.1-1c-0.3-0.6-1.2-1-2-1.3l1-1.3l-0.1-0.4c0-0.2-1.2-3.7-6.3-5L95.9,0l-0.3,0.5c0,0.1-3,5.7-8.5,9.2
		c-6.8-4.1-14.7-6.3-22.7-6.3c-7.2,0-14.4,1.8-20.8,5.2l0.1,0.1c-4.6-3.5-7.1-8.1-7.1-8.2L36.3,0l-0.6,0.1c-5.1,1.3-6.2,4.9-6.3,5
		l-0.1,0.4l1,1.3c-0.8,0.3-1.7,0.7-2,1.3c-0.2,0.3-0.2,0.7-0.1,1l5.8,6.4c-0.7,0.7-1.4,1.3-2,2c0-0.9,0.1-1.8,0.2-2.7l0.1-0.3
		L19.7,0.7L0,14.9l0.3,0.6c0.1,0.2,14.3,24.5,6.8,44l-0.6,1.7l1.6-0.7c0.1,0,5.4-2.3,13.4-1.6c1.4,5.6,4,11,7.5,15.6
		c-0.3,0-0.6,0.1-0.8,0.1l-1.4,0l0.8,1.1c0.1,0.1,10.2,14,13.9,23.6l0.9,2.4l0.5-2.6c0,0,0.4-2.1,1.7-3.7c1.2,2.6,2.1,5.2,2.5,7.4
		l0.8,4.1l0.7-4.1c0-0.1,1.7-10.6,4.2-14.7l10,11.3v-7.4c1,0,1.1,0,1.7,0c1.4,0,3.3-0.1,4.3-0.2v7.6l10.5-11.6
		c2.6,3.9,4.4,15,4.4,15.1l0.7,4.1l0.8-4.1c0.4-2.3,1.4-4.8,2.5-7.4c1.3,1.6,1.7,3.6,1.7,3.7l0.5,2.6l0.9-2.4
		c3.7-9.6,13.8-23.5,13.9-23.6l0.8-1.1l-1.4,0c-1.2,0-2.5-0.2-3.8-0.6c3.2-4.4,5.6-9.3,7-14.6c10-1.9,16.8,1.1,16.9,1.1l1.6,0.7
		l-0.6-1.7c-7.5-19.6,6.6-43.8,6.8-44L132.3,14.9z M99.6,22.6c-1,3.2-3,6-6.1,8.4c-1.3-2.6-3-5-5-7.2l0.2-0.2l1.7,0.7l5.6-6.2
		C97.2,19.6,98.5,21.1,99.6,22.6z M104.8,51.1c-0.1-0.9-0.2-1.5-0.2-1.6l-0.3-1.2l-0.9,0.8c-5.5,4.6-9.7,5-11.4,4.9
		c-0.1-1.7-0.2-2.8-0.2-2.9L91.6,50l-1.8,1.4l-3-4.2v-4.1l-0.7-0.6c5.8-1,11.1-4,15.3-8.8c3.8-4.3,6.2-9.5,6.5-13.7
		c0.3-6,4.7-10.1,6.1-11.2l7.3,6c-0.7,1.3-2,5-2.8,13.8c-1,11.4-8.1,12-8.4,12h-0.6l-0.1,0.2C108,47.7,105.9,50.2,104.8,51.1z
		 M102.2,59.1c-0.6,2-1.6,4.2-3.1,6.4c-1.2,0-5.4-0.1-8-1.4c0.8-3,1-6.1,1-8.5c1.9,0,6-0.4,11.3-4.5
		C103.4,52.6,103.4,55.5,102.2,59.1C102.2,59,102.2,59,102.2,59.1L102.2,59.1z M88.7,66.3c-0.8,1.7-1.9,3.2-3.1,4.6l-4.9-2.2
		c1.2-1.6,2.1-3.4,2.7-5.5l6.8-2.4C89.9,62.7,89.4,64.6,88.7,66.3z M84.4,74.3l5.9,5.2c-1.1,1.5-4,5.4-5.3,8.8
		c-0.5-1.3-1.5-2.7-2.9-3.6l2.6-2.9l-4.6-4.1C81.1,77,82.7,75.9,84.4,74.3z M79,76.7l-3.8-3.4c1.7-0.9,3.2-2,4.5-3.4l4.8,2.1
		C82.3,74.4,80,76,79,76.7z M67.2,74l-2.4,0C54.4,73,49.3,67.1,49,56l0,0l0,0c0-0.3,0-0.6,0-0.8c0-6.4,7.5-11.4,7.6-11.4l0.3-0.2
		v-6.2l5.1,9.7c-5,1.7-8.6,6.5-8.6,12.1c0,7,5.7,12.8,12.8,12.8S78.8,66.1,78.8,59c0-5.7-3.6-10.5-8.7-12.1l4.7-9.5v6.1l0.3,0.2
		c0.1,0,8,5,8,11.4C83,66.8,77.8,73,67.2,74z M43.6,66.3c-0.8-1.7-1.3-3.6-1.5-5.5l6.4,2.3c0.6,2.2,1.6,4.1,2.8,5.7l-4.7,2.1
		C45.5,69.6,44.4,68,43.6,66.3z M22.9,40.5l-0.1-0.6l-0.6,0c-0.3,0-7.3-0.2-8.4-11.6c-0.8-8.9-2-12.3-2.8-13.5l7.3-5.9
		c1.4,1.2,5.8,5.2,6.1,11.2c0.2,4.2,2.7,9.5,6.5,13.8c4.1,4.6,9.1,7.6,14.6,8.7l-0.8,0.7v4.1l-2.7,3.9L40.6,50l-0.1,1.2
		c0,0.1-0.1,1.2-0.2,2.9c-1.6,0-5.9-0.4-11.4-4.9l-0.9-0.8l-0.3,1.2c0,0.1-0.1,0.6-0.2,1.6C26.3,50.1,24.3,47.4,22.9,40.5z
		 M47.8,42.8l0-0.3l1.7-1.8l1.7,5.8c-1.9,2.2-3.6,5-3.7,8.4l-4-2.9l3.2-4.3v-4l0.9-1C47.7,42.8,47.7,42.8,47.8,42.8z M48.3,31.5
		l11.5-11.7v16.3l-1.9-0.5l0.1,0.3l-2.2-4.7v11.5c-1,0.4-1.9,1.3-3.2,2.6l-2.8-9.2l0-0.1c0,0-0.1,0-0.1,0L48.3,31.5z M65.8,41.6h1
		v-2.7l6-1.6l-4.4,9.3c-0.8-0.2-1.6-0.2-2.4-0.2c-0.9,0-1.7,0.1-2.6,0.3l-4.5-9.3l6,1.6v2.7H65.8z M79.2,45.3
		c-1.4-1.3-2.4-2.2-3.4-2.6V31.1l-2.2,4.9l0-0.4l-1.8,0.5V19.8l11.8,11.7L79.2,45.3z M66,47.7c6.2,0,11.3,5.1,11.3,11.3
		c0,6.2-5.1,11.3-11.3,11.3S54.7,65.3,54.7,59C54.7,52.8,59.8,47.7,66,47.7z M41.8,52.6l5.7,4.1c0.1,1.7,0.2,3.2,0.5,4.7l-6.2-2.2
		C41.6,56.5,41.7,54,41.8,52.6z M30.1,59c-1.1-3.5-1.2-6.4-1.1-7.9c5.3,4,9.4,4.5,11.3,4.5c0,2.4,0.2,5.5,1,8.5
		c-2.6,1.4-6.8,1.5-8,1.4C31.7,63.3,30.7,61.1,30.1,59L30.1,59C30.1,59,30.1,59,30.1,59z M47.9,74.3c1.6,1.4,3,2.5,4,3.2l-4.7,4.3
		l2.7,3.1c-1.3,0.9-2.1,2.3-2.6,3.4C46,84.9,43.1,81,42,79.5L47.9,74.3z M53,76.5c-1.1-0.7-3.3-2.3-5.3-4.4l4.6-2
		c1.2,1.3,2.6,2.4,4.3,3.2L53,76.5z M84.4,57l6.1-4.4c0.1,1.4,0.2,3.9,0,6.6l-6.6,2.3C84.1,60.1,84.3,58.6,84.4,57z M84.8,43.7v4
		l3.8,4.5l-3.8,2.9c0,0,0,0,0,0c0-3.4-2.1-6.4-4.1-8.6l1.6-5.8L84.8,43.7z M69.8,16.3v20.2l-4,1.2l-4-1.2V16.3L46.9,31.1l1.2,4.5
		c-2.2-0.7-6.3-2.2-9.8-5.1c1.4-2.5,3.1-4.8,5.2-6.8l0.2-0.1l1.6,2l10.2-9.3c3.1-1,6.4-1.6,9.7-1.6c4.5,0,8.8,0.9,12.8,2.8l0.1-0.2
		l9,8.3l0.7-0.9c1.9,2.1,3.5,4.4,4.8,7c-0.1,0-0.1,0.1-0.2,0.1c-3.3,2.2-6.8,3.4-8.6,3.9l1.2-4.7L69.8,16.3z M102.5,8.7L89.9,22.6
		l-0.4-0.1l11.3-14.4C101.6,8.2,102.2,8.5,102.5,8.7z M96.7,1.7c3.1,0.9,4.2,2.8,4.6,3.6L86.9,23.5L76.6,14
		C88.2,14.8,95.2,4.2,96.7,1.7z M64.5,4.6c7.6,0,15.1,2,21.6,5.8c-3.1,1.7-7,2.8-11.6,1.9L72,11.8l4.2,3.8c-3.5-1.3-7.2-2-11-2
		c-2.7,0-5.3,0.3-7.9,1l3.1-2.8l-2.5,0.5c-5.3,1-9.8-0.6-13.1-2.9C50.7,6.2,57.6,4.6,64.5,4.6z M35.6,1.7
		c1.5,2.5,8.5,13.1,20.1,12.3l-10.3,9.4L31,5.3C31.4,4.5,32.5,2.7,35.6,1.7z M31.4,8.1l11.3,14.4l-0.4,0.1L29.8,8.7
		C30.1,8.5,30.7,8.2,31.4,8.1z M34.8,16.4l6.8,7.6c-1.6,1.8-3,3.7-4.2,5.8c-2.8-2.5-5-6-5.3-10.7C32.9,18.2,33.9,17.2,34.8,16.4z
		 M9,58.5c6-18.2-5-39.4-7.1-43.2L19.5,2.6L30.8,15c-2.2,15.9,13.7,21.2,17.7,22.3l0.5,1.8l-2,2C34.7,39.3,26.4,27.5,26,20
		c-0.4-7.9-6.9-12.5-7.2-12.7l-0.5-0.3L9.6,14l-0.8,0.6l0.8,0.6c0.1,0.1,1.8,1.9,2.8,13.3c1,10.8,7.2,12.6,9.2,12.9
		c1.8,8.6,4.6,11,5.9,11.6c0,1.5,0.3,3.4,0.9,5.6C19.1,56,12,57.6,9,58.5z M22.7,58.9c1.9,0.2,4,0.7,6.2,1.3c0.7,2,1.8,4.2,3.3,6.5
		l0.2,0.3l0.4,0c0.1,0,0.3,0,0.7,0c1.6,0,5.5-0.2,8.2-1.5c0.2,0.5,0.4,1,0.6,1.4c0.3,0.6,0.6,1.2,0.9,1.7c-1.3,0.9-7.3,4.7-12.9,5.6
		C26.8,69.7,24.2,64.5,22.7,58.9z M42.1,96.9c-3.5-8-10.2-17.8-12.5-21c6.2-0.7,12.9-5,14.4-6c0.1,0.2,0.3,0.4,0.4,0.6l-10.3,6.9
		l0.4,0.6c0.1,0.1,5.6,8,9.4,16C43.1,95,42.5,96,42.1,96.9z M47.7,99.5c-2.8-8.5-9.7-19-11.5-21.6l9.1-6.2c0.5,0.6,1,1.1,1.5,1.6
		l-6.9,6l0.4,0.5c1.7,2.2,6.1,8.4,6.1,11.3l1.5,0.1c0,0,0.5-3.6,2.9-5.3l1,1.1C49.9,89.9,48.5,95.8,47.7,99.5z M49.5,81.9l8.9-8
		c1,0.4,1.4,0.7,3.4,1v20.7L49.5,81.9z M62.8,91V75.2c1,0.1,1.3,0.2,1.9,0.3l2.6,0c0.5,0,0.5-0.1,1.5-0.2v15.5
		C66.8,91,64.8,91,62.8,91z M69.8,75c2-0.3,2.7-0.6,3.8-1l8.8,7.9L69.8,95.7V75z M84.6,99.5c-0.8-3.8-2.3-10-4.3-12.7l0.9-1
		c2.6,1.6,3.2,5.5,3.2,5.5l1.5-0.1c-0.1-2.9,4.4-9.1,6.1-11.3l0.4-0.5l-6.9-6c0.5-0.5,1-1.1,1.5-1.6l9.1,6.2
		C94.3,80.5,87.3,90.9,84.6,99.5z M90.2,96.9c-0.4-0.9-1-1.9-1.9-2.8c3.8-8,9.3-15.9,9.4-16l0.4-0.6l-10.3-6.9
		c0.1-0.2,0.3-0.4,0.4-0.6c1.5,1,8.3,5.3,14.4,6C100.4,79.1,93.7,88.9,90.2,96.9z M99.1,73.6c-4.6-1.5-9-4.2-10.1-4.9
		c0.3-0.6,0.7-1.1,0.9-1.7c0.2-0.5,0.4-0.9,0.6-1.4c2.7,1.3,6.6,1.5,8.2,1.5c0.4,0,0.7,0,0.7,0l0.4,0l0.2-0.3
		c1.6-2.3,2.6-4.4,3.3-6.5c0.9-0.3,1.8-0.5,2.7-0.7C104.6,64.6,102.3,69.3,99.1,73.6z M123.3,58.5c-3-0.9-10.1-2.5-19.3,0
		c0.6-2.2,0.8-4.1,0.9-5.6c1.2-0.6,4-3,5.9-11.6c2-0.3,8.2-2.1,9.2-12.9c1-11.4,2.7-13.2,2.8-13.2l0.8-0.6l-9.5-7.7l-0.5,0.3
		c-0.3,0.2-6.8,4.8-7.2,12.7c-0.4,7.7-9,19.7-21.6,21.3l-1.9-2.2l0.5-1.7c3-0.7,20.5-5.8,18.2-22.4l11.3-12.3l17.5,12.7
		C128.3,19.1,117.3,40.3,123.3,58.5z"/>
	<path class="st0" d="M71.3,91.6l7.7-9.3l-5-6.4l-2.5,1.4l0.1,0.5c0.8,4.2,0,11.3,0,11.4L71.3,91.6z M73.6,77.8l3.5,4.5l-3.9,4.7
		c0.2-2.4,0.3-6.1-0.1-8.9L73.6,77.8z"/>
	<path class="st0" d="M60.7,77.8l0.1-0.5l-2.5-1.4l-5,6.4l7.7,9.3l-0.3-2.5C60.7,89.1,59.9,82,60.7,77.8z M59.1,86.9l-3.9-4.7
		l3.5-4.5l0.5,0.3C58.7,80.9,58.9,84.5,59.1,86.9z"/>
</g>
</svg>
