<?xml version="1.0" encoding="utf-8"?>
<!-- Generator: Adobe Illustrator 19.2.1, SVG Export Plug-In . SVG Version: 6.00 Build 0)  -->
<!DOCTYPE svg PUBLIC "-//W3C//DTD SVG 1.1//EN" "http://www.w3.org/Graphics/SVG/1.1/DTD/svg11.dtd">
<svg version="1.1" id="Layer_1" xmlns="http://www.w3.org/2000/svg" xmlns:xlink="http://www.w3.org/1999/xlink" x="0px" y="0px"
	 viewBox="0 0 10.2 9.5" style="enable-background:new 0 0 10.2 9.5;" xml:space="preserve">
<style type="text/css">
	.st0{fill:#D2C894;}
</style>
<path class="st0" d="M6.9,6.6c0,0.1,0,0.1,0,0.1c0,0.6,0,1.2,0,1.9c0,0.5-0.4,0.9-0.9,0.9c-0.6,0-1.2,0-1.8,0
	c-0.5,0-0.8-0.3-0.9-0.7c0-0.1,0-0.1,0-0.2c0-0.6,0-1.3,0-1.9c0,0,0-0.1,0-0.1c0,0-0.1,0-0.1,0c-0.6,0-1.3,0-1.9,0
	c-0.5,0-0.8-0.3-0.9-0.7c0-0.1,0-0.1,0-0.2c0-0.6,0-1.2,0-1.8c0-0.5,0.4-0.9,0.9-0.9c0.6,0,1.3,0,1.9,0c0,0,0.1,0,0.1,0
	c0,0,0-0.1,0-0.1c0-0.6,0-1.3,0-1.9C3.3,0.4,3.6,0,4.1,0c0,0,0.1,0,0.1,0C4.8,0,5.4,0,6,0c0.4,0,0.8,0.3,0.9,0.8c0,0.1,0,0.1,0,0.2
	c0,0.6,0,1.3,0,1.9c0,0,0,0.1,0,0.1c0,0,0.1,0,0.1,0c0.6,0,1.3,0,1.9,0c0.5,0,0.9,0.3,0.9,0.8c0,0,0,0.1,0,0.1c0,0.6,0,1.3,0,1.9
	c0,0.4-0.3,0.8-0.8,0.9c-0.1,0-0.1,0-0.2,0C8.3,6.6,7.6,6.6,6.9,6.6C7,6.6,7,6.6,6.9,6.6z M8.9,3.9c-1,0-2,0-2.9,0c0-1,0-2,0-2.9
	c-0.6,0-1.1,0-1.7,0c0,1,0,2,0,2.9c-1,0-2,0-2.9,0c0,0.6,0,1.1,0,1.7c1,0,2,0,2.9,0c0,1,0,2,0,2.9c0.6,0,1.1,0,1.7,0c0-1,0-2,0-2.9
	c1,0,2,0,2.9,0C8.9,5,8.9,4.5,8.9,3.9z"/>
</svg>
