<?xml version="1.0" encoding="utf-8"?>
<!-- Generator: Adobe Illustrator 19.2.1, SVG Export Plug-In . SVG Version: 6.00 Build 0)  -->
<!DOCTYPE svg PUBLIC "-//W3C//DTD SVG 1.1//EN" "http://www.w3.org/Graphics/SVG/1.1/DTD/svg11.dtd">
<svg version="1.1" id="Layer_1" xmlns="http://www.w3.org/2000/svg" xmlns:xlink="http://www.w3.org/1999/xlink" x="0px" y="0px"
	 viewBox="0 0 98.3 97" style="enable-background:new 0 0 98.3 97;" xml:space="preserve">
<style type="text/css">
	.st0{fill:#DD667C;stroke:#797076;stroke-width:4;stroke-linejoin:round;stroke-miterlimit:10;}
	.st1{fill:#FFFFFF;}
</style>
<path class="st0" d="M95,26C95,13.3,84.7,3,72,3S49,13.3,49,26C49,13.3,38.7,3,26,3S3,13.3,3,26c0,2.9,0.5,5.6,1.5,8.1
	C4.5,34.1,15,72.3,49,93c34-20.7,44.5-58.9,44.5-58.9C94.5,31.6,95,28.9,95,26z"/>
<path class="st1" d="M70.3,10.5c0,0,9.2,1,12.8,7.7c3.7,6.7-2.2,2.3-2.3,2c-0.2-0.3-3-5.2-10.5-7S70.3,10.5,70.3,10.5z"/>
<ellipse class="st1" cx="84.5" cy="28.4" rx="1.3" ry="2.2"/>
</svg>
