<?xml version="1.0" encoding="utf-8"?>
<!-- Generator: Adobe Illustrator 19.2.1, SVG Export Plug-In . SVG Version: 6.00 Build 0)  -->
<!DOCTYPE svg PUBLIC "-//W3C//DTD SVG 1.1//EN" "http://www.w3.org/Graphics/SVG/1.1/DTD/svg11.dtd">
<svg version="1.1" id="Layer_1" xmlns="http://www.w3.org/2000/svg" xmlns:xlink="http://www.w3.org/1999/xlink" x="0px" y="0px"
	 viewBox="0 0 132.3 107" style="enable-background:new 0 0 132.3 107;" xml:space="preserve">
<style type="text/css">
	.st0{fill:#D2C894;}
</style>
<g>
	<path class="st0" d="M64.8,44.6V24.2l-27-14.3v14.6l5,2.2v29.4c-2-1.8-3.5-5.4-3.1-11.9l-0.1-0.6h-6.6c0.8-8,4.7-11.9,5-12.2
		l0.6-0.7L2.8,2.7v18.8l6,4.1v13.6l6,4.3v11.9l9.1,7.6c2,2.7,5.4,5.7,11.5,10.8l7.4,5.7v3.8l22,19.9V60.1L54.6,44.6H64.8z
		 M36.2,72.6c-5.8-4.9-9.1-7.8-11-10.2l0-0.1l-0.4-0.3c-1.8-2.5-2.2-4.6-2.6-7.9c-0.8-6.8,1.3-20.5,1.3-20.7L22,33.1
		c-0.1,0.6-2.1,14-1.3,21.1c0.2,2.1,0.5,3.8,1,5.3l-6-4.9V44.5l3.7,2.7l0.8-1.2L9.8,38.4V26.6l5.7,3.9l0.7-1.2L3.8,20.7v-15
		l32.4,25.1c-1,1.3-3.2,4.4-4.3,9.3c-1.3,5.8-1.1,15.2,6.9,27.2l1.2-0.9c-5.9-8.8-7.5-15.8-7.3-21.8H38c-0.3,9,3.8,12.7,4.8,13.7
		v19.3L36.2,72.6z M62.8,60.5v39.4l-19-17.3V25.8l-4-2.2V12.4l23,12.7v18.5H51.9L62.8,60.5z"/>
	<path class="st0" d="M58.1,46.6l8.1,13l8.1-13H58.1z M60.8,47.6h10.8l-5.4,8.8L60.8,47.6z"/>
	<path class="st0" d="M129.8,2.7L93.7,30.6l0.5,0.8c0.1,0.1,4,4.2,4.8,12.2h-6.5l0.2,0.6c0.4,6.6-1.8,10.2-2.8,12V26.7l4-2.2V9.9
		l-26,14.3v20.4h9.1l-9.1,16.1v42.5l22-19.9v-3.8l7.2-5.8c6.4-5.4,9.7-8.4,11.6-11.3l0.2,0.1l8.9-7.2V43.4l6-4.3V25.5l6-4.1V2.7z
		 M87.8,82.6l-19,17.3V61.1l10.7-17.5H68.8V25.1l24-12.7v11.2l-5,2.2V82.6z M127.8,20.7l-12.3,8.5l0.8,1.2l5.5-3.9v11.8L111.4,46
		l0.8,1.2l3.6-2.7v10.1l-5.8,4.9c0.6-1.5,0.9-3.2,1.2-5.3c0.8-7-1.2-20.5-1.3-21.1l-1.4,0.2c0,0.1,2.1,13.9,1.3,20.7
		c-0.8,6.7-1.5,8.4-13.6,18.5l-6.3,5V58.3c1-0.9,4.5-4.7,4.2-13.7h5.1c0.3,6-1.3,13.1-7.2,21.8l1.2,0.8C106.8,47,98,33.7,95.6,30.8
		l32.2-25.1V20.7z"/>
</g>
</svg>
