<?xml version="1.0" encoding="utf-8"?>
<!-- Generator: Adobe Illustrator 19.2.1, SVG Export Plug-In . SVG Version: 6.00 Build 0)  -->
<!DOCTYPE svg PUBLIC "-//W3C//DTD SVG 1.1//EN" "http://www.w3.org/Graphics/SVG/1.1/DTD/svg11.dtd">
<svg version="1.1" id="Layer_1" xmlns="http://www.w3.org/2000/svg" xmlns:xlink="http://www.w3.org/1999/xlink" x="0px" y="0px"
	 viewBox="0 0 317.7 337" style="enable-background:new 0 0 317.7 337;" xml:space="preserve">
<style type="text/css">
	.st0{fill:#D6A387;stroke:#797076;stroke-width:4;stroke-linejoin:round;stroke-miterlimit:10;}
	.st1{fill:#FFFFFF;stroke:#797076;stroke-width:4;stroke-miterlimit:10;}
	.st2{fill:#DD667C;stroke:#797076;stroke-width:4;stroke-miterlimit:10;}
	.st3{fill:#FFFFFF;stroke:#797076;stroke-width:4;stroke-linejoin:round;stroke-miterlimit:10;}
	.st4{fill:#FFFFFF;}
	.st5{fill:#584C65;stroke:#797076;stroke-width:4;stroke-miterlimit:10;}
	.st6{fill:none;stroke:#797076;stroke-width:4;stroke-linejoin:round;stroke-miterlimit:10;}
</style>
<path class="st0" d="M50.2,221.7c0,0-24.4,15.7-22.3,41s51,16.8,51,16.8l3.4-26.5l-13.6-48.3L50.2,221.7z"/>
<path class="st0" d="M267.8,221.7c0,0,24.4,15.7,22.3,41s-51,16.8-51,16.8l-3.4-26.5l13.6-48.3L267.8,221.7z"/>
<path class="st1" d="M288.1,129L288.1,129c-6-39.6-29.7-73.4-62.8-93.1c0,0,8.9-0.7,13.8,0c0,0-6.9-10.1-31.3-8.7
	c0,0-13.8-21.9-28.4-23.3c0,0,11.7,8.8,8.9,17.1c0,0,0,0,0,0c-9.5-2.2-19.2-3.3-29.3-3.3C101.2,17.8,52,55,35,106.8v0
	c0,0-14.6,37.9-23.5,44.9c0,0,12.5-0.7,16.8-12.6c-0.2,3-0.4,6.4-0.4,9.7c0,72.3,58.6,130.8,130.8,130.8
	c61.8,0,113.6-42.9,127.3-100.6c4.6,9.2,3.5,22.4,3.5,22.4C296.6,149.2,288.1,129,288.1,129z"/>
<path class="st2" d="M108.2,188c0,0-44.1,78.7-24.1,113.4S159,334,159,334V172L108.2,188z"/>
<path class="st2" d="M209.7,188c0,0,44.2,78.7,24.2,113.4S159,334,159,334V172L209.7,188z"/>
<path class="st3" d="M110.6,179.6c0,0-12.1,21.3-24.9,27.7c0,0,36.6-2.2,47.2-20.2l-10.6,29.6c0,0,35.3-17.3,36.6-28
	c0,0,14.1,24.7,34.1,28c0,0-12.7-21.3-4.7-33.3c0,0,15.7,22.3,41,22.3c0,0-14.3-13.7-14.3-26"/>
<polygon class="st4" points="118.8,164.2 204.6,145.6 189.3,179.6 130.7,182.7 "/>
<path class="st5" d="M103.4,138.7c0,0-6.1-16.7-2.1-26.7s16.7-12.3,21.3-3.7c4.7,8.7,0,29,0,29"/>
<path class="st1" d="M99,140c0,0,14.9-6,29.9,0"/>
<ellipse class="st4" cx="117.1" cy="118.2" rx="3.2" ry="5.8"/>
<path class="st5" d="M209.5,138.7c0,0,6.1-16.7,2.1-26.7s-16.7-12.3-21.3-3.7s0,29,0,29"/>
<path class="st1" d="M213.9,140c0,0-14.9-6-29.9,0"/>
<ellipse class="st4" cx="204.6" cy="118.2" rx="3.2" ry="5.8"/>
<path class="st0" d="M229.3,50c0,0,1.7,37,29.7,40c0,0,27-41,43.5-10c0,0,11.5,24,12-1S273.2,20,229.3,50z"/>
<path class="st6" d="M253.5,39.4c0,0-7.2,26.9,19.4,35.2"/>
<path class="st6" d="M281.9,41.1c0,0-5.5,13.4,2.3,27.6"/>
<path class="st6" d="M296.7,72.2c0,0-2.1-16.5,8.7-15.2"/>
<path class="st0" d="M87.5,50c0,0-1.7,37-29.7,40c0,0-27-41-43.5-10c0,0-11.5,24-12-1S43.7,20,87.5,50z"/>
<path class="st6" d="M63.3,39.4c0,0,7.2,26.9-19.4,35.2"/>
<path class="st6" d="M35,41.1c0,0,5.5,13.4-2.3,27.6"/>
<path class="st6" d="M20.1,72.2c0,0,2.1-16.5-8.7-15.2"/>
</svg>
